<svg width="16" height="16" viewBox="0 0 16 16" fill="none" xmlns="http://www.w3.org/2000/svg">
<rect width="16" height="16" rx="2" fill="#0057CE"/>
<mask id="path-2-inside-1_4113_89340" fill="white">
<path d="M10.6001 8.22663C10.8173 8.10254 11.0201 8.01505 11.2564 7.93391C11.4839 7.85596 11.7154 7.79153 11.9492 7.73346C12.1823 7.67539 12.4177 7.62607 12.6532 7.57676C12.8886 7.52744 13.1225 7.47971 13.35 7.3946C14.4644 6.9762 15.139 5.85223 14.9759 4.68373C14.8128 3.51522 13.8559 2.61398 12.6683 2.50978C12.129 2.46284 11.608 2.58852 11.1259 2.80886C10.6455 3.02841 10.2056 3.34022 9.823 3.69737C9.04983 4.41725 8.4787 5.34156 8.13029 6.32552C7.7795 7.31585 7.64825 8.38095 7.73098 9.42537C7.77234 9.94559 7.8678 10.469 8.02052 10.9693C8.17006 11.4601 8.38642 11.9668 8.67756 12.3964C8.55188 11.5922 8.66006 10.7609 8.99494 10.0164C9.32903 9.27344 9.88266 8.63708 10.6001 8.22663Z"/>
</mask>
<path d="M10.6001 8.22663C10.8173 8.10254 11.0201 8.01505 11.2564 7.93391C11.4839 7.85596 11.7154 7.79153 11.9492 7.73346C12.1823 7.67539 12.4177 7.62607 12.6532 7.57676C12.8886 7.52744 13.1225 7.47971 13.35 7.3946C14.4644 6.9762 15.139 5.85223 14.9759 4.68373C14.8128 3.51522 13.8559 2.61398 12.6683 2.50978C12.129 2.46284 11.608 2.58852 11.1259 2.80886C10.6455 3.02841 10.2056 3.34022 9.823 3.69737C9.04983 4.41725 8.4787 5.34156 8.13029 6.32552C7.7795 7.31585 7.64825 8.38095 7.73098 9.42537C7.77234 9.94559 7.8678 10.469 8.02052 10.9693C8.17006 11.4601 8.38642 11.9668 8.67756 12.3964C8.55188 11.5922 8.66006 10.7609 8.99494 10.0164C9.32903 9.27344 9.88266 8.63708 10.6001 8.22663Z" fill="white" stroke="white" stroke-width="2" mask="url(#path-2-inside-1_4113_89340)"/>
<path d="M10.1404 9.40039C10.1197 9.61993 10.1921 9.84186 10.3464 10.0041C10.5007 10.1664 10.7187 10.2523 10.9167 10.3287C11.1331 10.4114 11.32 10.479 11.5221 10.5959C11.7146 10.7073 11.8848 10.8457 12.0272 11.0167C12.6126 11.7159 12.5585 12.7421 11.9039 13.3784C11.2492 14.0148 10.2112 14.049 9.51516 13.458C9.33778 13.3068 9.18028 13.1127 9.05062 12.9226C8.85335 11.6579 9.23596 10.3327 10.1404 9.40039Z" fill="white"/>
<mask id="path-4-outside-2_4113_89340" maskUnits="userSpaceOnUse" x="8" y="8.40039" width="5" height="6" fill="black">
<rect fill="white" x="8" y="8.40039" width="5" height="6"/>
<path d="M10.1404 9.40039C10.3464 9.6045 10.1921 9.84186 10.3464 10.0041C10.5007 10.1664 10.7187 10.2523 10.9167 10.3287C11.1331 10.4114 11.32 10.479 11.5221 10.5959C11.7146 10.7073 11.8848 10.8457 12.0272 11.0167C12.6126 11.7159 12.5585 12.7421 11.9039 13.3784C11.2492 14.0148 10.2112 14.049 9.51516 13.458C9.33778 13.3068 9.18028 13.1127 9.05062 12.9226C8.85335 11.6579 9.23596 10.3327 10.1404 9.40039Z"/>
</mask>
<path d="M10.1404 9.40039C10.3464 9.6045 10.1921 9.84186 10.3464 10.0041C10.5007 10.1664 10.7187 10.2523 10.9167 10.3287C11.1331 10.4114 11.32 10.479 11.5221 10.5959C11.7146 10.7073 11.8848 10.8457 12.0272 11.0167C12.6126 11.7159 12.5585 12.7421 11.9039 13.3784C11.2492 14.0148 10.2112 14.049 9.51516 13.458C9.33778 13.3068 9.18028 13.1127 9.05062 12.9226C8.85335 11.6579 9.23596 10.3327 10.1404 9.40039Z" stroke="#0057CE" mask="url(#path-4-outside-2_4113_89340)"/>
<mask id="path-5-inside-3_4113_89340" fill="white">
<path d="M3.1507 3.86914C3.95967 3.86835 4.74477 4.313 5.31352 4.81174C5.91726 5.34151 6.38498 6.01605 6.69282 6.74945C7.00225 7.48682 7.15099 8.28386 7.14543 9.0801C7.13986 9.85406 6.98554 10.6925 6.6435 11.3996C6.61089 10.4888 6.25771 9.61782 5.64442 8.93771C5.53704 8.81919 5.42488 8.71181 5.29124 8.62113C5.15761 8.53045 5.01682 8.46363 4.86489 8.41033C4.56978 8.30693 4.23649 8.2584 3.92944 8.22499C3.61286 8.19 3.29468 8.16931 2.97889 8.12318C2.65435 8.07545 2.36321 8.00545 2.07367 7.8392C1.2305 7.35717 0.821642 6.37559 1.0738 5.44651C1.32595 4.51663 2.17787 3.86994 3.1507 3.86914Z"/>
</mask>
<path d="M3.1507 3.86914C3.95967 3.86835 4.74477 4.313 5.31352 4.81174C5.91726 5.34151 6.38498 6.01605 6.69282 6.74945C7.00225 7.48682 7.15099 8.28386 7.14543 9.0801C7.13986 9.85406 6.98554 10.6925 6.6435 11.3996C6.61089 10.4888 6.25771 9.61782 5.64442 8.93771C5.53704 8.81919 5.42488 8.71181 5.29124 8.62113C5.15761 8.53045 5.01682 8.46363 4.86489 8.41033C4.56978 8.30693 4.23649 8.2584 3.92944 8.22499C3.61286 8.19 3.29468 8.16931 2.97889 8.12318C2.65435 8.07545 2.36321 8.00545 2.07367 7.8392C1.2305 7.35717 0.821642 6.37559 1.0738 5.44651C1.32595 4.51663 2.17787 3.86994 3.1507 3.86914Z" fill="white" stroke="white" stroke-width="2" mask="url(#path-5-inside-3_4113_89340)"/>
<mask id="path-6-inside-4_4113_89340" fill="white">
<path d="M5.16169 9.33586C5.08533 9.25154 5.00579 9.1712 4.91749 9.09961C5.02726 9.28574 5.0384 9.49654 4.99226 9.69937C4.94613 9.90142 4.84431 10.0883 4.71545 10.249C4.58261 10.4137 4.4267 10.5449 4.25727 10.669C4.10932 10.7772 3.89375 10.9156 3.76012 11.0453C3.36717 11.4271 3.28683 12.0237 3.56524 12.493C3.84364 12.9631 4.40841 13.1858 4.93738 13.0331C5.2293 12.9488 5.47669 12.7587 5.67316 12.5415C5.87202 12.322 6.0335 12.061 6.16077 11.797C6.12816 10.8862 5.77498 10.016 5.16169 9.33586Z"/>
</mask>
<path d="M5.16169 9.33586C5.08533 9.25154 5.00579 9.1712 4.91749 9.09961C5.02726 9.28574 5.0384 9.49654 4.99226 9.69937C4.94613 9.90142 4.84431 10.0883 4.71545 10.249C4.58261 10.4137 4.4267 10.5449 4.25727 10.669C4.10932 10.7772 3.89375 10.9156 3.76012 11.0453C3.36717 11.4271 3.28683 12.0237 3.56524 12.493C3.84364 12.9631 4.40841 13.1858 4.93738 13.0331C5.2293 12.9488 5.47669 12.7587 5.67316 12.5415C5.87202 12.322 6.0335 12.061 6.16077 11.797C6.12816 10.8862 5.77498 10.016 5.16169 9.33586Z" stroke="white" stroke-width="1.5" mask="url(#path-6-inside-4_4113_89340)"/>
<mask id="path-7-outside-5_4113_89340" maskUnits="userSpaceOnUse" x="2.40039" y="8.09961" width="5" height="6" fill="black">
<rect fill="white" x="2.40039" y="8.09961" width="5" height="6"/>
<path d="M5.16169 9.33586C5.08533 9.25154 5.00579 9.1712 4.91749 9.09961C5.02726 9.28574 5.0384 9.49654 4.99226 9.69937C4.94613 9.90142 4.84431 10.0883 4.71545 10.249C4.58261 10.4137 4.4267 10.5449 4.25727 10.669C4.10932 10.7772 3.89375 10.9156 3.76012 11.0453C3.36717 11.4271 3.28683 12.0237 3.56524 12.493C3.84364 12.9631 4.40841 13.1858 4.93738 13.0331C5.2293 12.9488 5.47669 12.7587 5.67316 12.5415C5.87202 12.322 6.0335 12.061 6.16077 11.797C6.12816 10.8862 5.77498 10.016 5.16169 9.33586Z"/>
</mask>
<path d="M5.16169 9.33586C5.08533 9.25154 5.00579 9.1712 4.91749 9.09961C5.02726 9.28574 5.0384 9.49654 4.99226 9.69937C4.94613 9.90142 4.84431 10.0883 4.71545 10.249C4.58261 10.4137 4.4267 10.5449 4.25727 10.669C4.10932 10.7772 3.89375 10.9156 3.76012 11.0453C3.36717 11.4271 3.28683 12.0237 3.56524 12.493C3.84364 12.9631 4.40841 13.1858 4.93738 13.0331C5.2293 12.9488 5.47669 12.7587 5.67316 12.5415C5.87202 12.322 6.0335 12.061 6.16077 11.797C6.12816 10.8862 5.77498 10.016 5.16169 9.33586Z" fill="white"/>
<path d="M5.16169 9.33586C5.08533 9.25154 5.00579 9.1712 4.91749 9.09961C5.02726 9.28574 5.0384 9.49654 4.99226 9.69937C4.94613 9.90142 4.84431 10.0883 4.71545 10.249C4.58261 10.4137 4.4267 10.5449 4.25727 10.669C4.10932 10.7772 3.89375 10.9156 3.76012 11.0453C3.36717 11.4271 3.28683 12.0237 3.56524 12.493C3.84364 12.9631 4.40841 13.1858 4.93738 13.0331C5.2293 12.9488 5.47669 12.7587 5.67316 12.5415C5.87202 12.322 6.0335 12.061 6.16077 11.797C6.12816 10.8862 5.77498 10.016 5.16169 9.33586Z" stroke="#0057CE" mask="url(#path-7-outside-5_4113_89340)"/>
</svg>
